<svg xmlns="http://www.w3.org/2000/svg" viewBox="0 0 100 100">
  <defs>
    <linearGradient id="grad1" x1="0%" y1="0%" x2="100%" y2="100%">
      <stop offset="0%" style="stop-color:#667eea;stop-opacity:1" />
      <stop offset="100%" style="stop-color:#764ba2;stop-opacity:1" />
    </linearGradient>
  </defs>
  
  <!-- Fondo circular -->
  <circle cx="50" cy="50" r="48" fill="url(#grad1)" stroke="#fff" stroke-width="2"/>
  
  <!-- Icono de conversión -->
  <g transform="translate(25, 25)">
    <!-- Flecha izquierda -->
    <path d="M15 20 L5 25 L15 30 L15 27 L25 27 L25 23 L15 23 Z" fill="#fff" opacity="0.8"/>
    
    <!-- Flecha derecha -->
    <path d="M35 20 L45 25 L35 30 L35 27 L25 27 L25 23 L35 23 Z" fill="#fff" opacity="0.8"/>
    
    <!-- Documento central -->
    <rect x="22" y="15" width="16" height="20" rx="2" fill="#fff" opacity="0.9"/>
    <rect x="24" y="18" width="12" height="1" fill="#667eea"/>
    <rect x="24" y="21" width="12" height="1" fill="#667eea"/>
    <rect x="24" y="24" width="8" height="1" fill="#667eea"/>
    <rect x="24" y="27" width="10" height="1" fill="#667eea"/>
  </g>
  
  <!-- Texto "P" -->
  <text x="50" y="75" font-family="Arial, sans-serif" font-size="24" font-weight="bold" text-anchor="middle" fill="#fff">P</text>
</svg>
